<svg xmlns="http://www.w3.org/2000/svg" viewBox="0 0 1500 1500">
  <path fill="#000" d="M 612.605469 374.761719 C 610.269531 374.8125 608.417969 376.753906 608.464844 379.105469 L 624.472656 1072.539062 C 624.523438 1074.875 626.460938 1076.722656 628.796875 1076.660156 L 863.132812 1070.957031 C 864.296875 1070.925781 865.347656 1070.421875 866.097656 1069.636719 C 866.84375 1068.855469 867.296875 1067.78125 867.273438 1066.617188 L 851.265625 373.171875 C 851.246094 372.039062 850.78125 370.976562 849.960938 370.195312 C 849.140625 369.414062 848.058594 369 846.929688 369.035156 Z"/>
  <path fill="#000" d="M 764.113281 189.046875 L 687.023438 190.925781 C 664.898438 191.472656 644.285156 200.597656 628.996094 216.628906 C 613.71875 232.652344 605.574219 253.679688 606.085938 275.800781 L 607.867188 352.894531 C 607.890625 354.023438 608.355469 355.085938 609.171875 355.867188 C 609.984375 356.640625 611.070312 357.054688 612.199219 357.023438 L 846.519531 351.308594 C 847.644531 351.28125 848.71875 350.804688 849.492188 349.992188 C 850.273438 349.171875 850.6875 348.089844 850.65625 346.972656 L 848.875 269.878906 C 848.359375 247.742188 839.265625 227.152344 823.25 211.878906 C 807.25 196.617188 786.246094 188.511719 764.113281 189.046875 Z"/>
  <path fill="#000" d="M 628.949219 1092.089844 C 627.46875 1092.132812 626.113281 1092.914062 625.378906 1094.222656 C 624.632812 1095.503906 624.621094 1097.078125 625.351562 1098.382812 L 753.082031 1329.722656 C 753.867188 1331.125 755.351562 1331.957031 756.949219 1331.894531 C 758.078125 1331.851562 759.109375 1331.367188 759.855469 1330.585938 C 760.179688 1330.25 760.441406 1329.832031 760.652344 1329.390625 L 867.25 1092.339844 C 867.847656 1091.011719 867.730469 1089.484375 866.914062 1088.261719 C 866.109375 1087.054688 864.738281 1086.328125 863.285156 1086.375 Z"/>
</svg>
